{
  "accessors": [
    {
      "bufferView": 2,
      "componentType": 5126,
      "count": 184,
      "max": [
        0.3556300103664398,
        0.4286400079727173,
        0.686739981174469
      ],
      "min": [
        -0.3556300103664398,
        -0.29330000281333923,
        0.00026000000070780516
      ],
      "type": "VEC3"
    },
    {
      "bufferView": 2,
      "byteOffset": 2208,
      "componentType": 5126,
      "count": 184,
      "max": [
        0.9390650391578674,
        0.9796542525291443,
        0.9981260299682617
      ],
      "min": [
        -0.9390650391578674,
        -0.9774054884910583,
        -1.0
      ],
      "type": "VEC3"
    },
    {
      "bufferView": 1,
      "componentType": 5126,
      "count": 184,
      "max": [
        1.0,
        1.0
      ],
      "min": [
        0.0,
        0.0
      ],
      "type": "VEC2"
    },
    {
      "bufferView": 0,
      "componentType": 5125,
      "count": 828,
      "type": "SCALAR"
    }
  ],
  "asset": {
    "extras": {
      "author": "nulpointr (https://sketchfab.com/nulpointr)",
      "license": "CC-BY-4.0 (http://creativecommons.org/licenses/by/4.0/)",
      "source": "https://sketchfab.com/3d-models/dorito-paintball-bunker-8733696148774e39b558cd7e8df0c544",
      "title": "Dorito Paintball Bunker"
    },
    "generator": "Sketchfab-12.67.0",
    "version": "2.0"
  },
  "bufferViews": [
    {
      "buffer": 0,
      "byteLength": 3312,
      "name": "floatBufferViews",
      "target": 34963
    },
    {
      "buffer": 0,
      "byteLength": 1472,
      "byteOffset": 3312,
      "byteStride": 8,
      "name": "floatBufferViews",
      "target": 34962
    },
    {
      "buffer": 0,
      "byteLength": 4416,
      "byteOffset": 4784,
      "byteStride": 12,
      "name": "floatBufferViews",
      "target": 34962
    }
  ],
  "buffers": [
    {
      "byteLength": 9200,
      "uri": "scene.bin"
    }
  ],
  "materials": [
    {
      "name": "Scene_-_Root",
      "pbrMetallicRoughness": {
        "metallicFactor": 0.3431783536585366,
        "roughnessFactor": 0.22999237804878048
      }
    }
  ],
  "meshes": [
    {
      "name": "m-dorito_0",
      "primitives": [
        {
          "attributes": {
            "NORMAL": 1,
            "POSITION": 0,
            "TEXCOORD_0": 2
          },
          "indices": 3,
          "material": 0,
          "mode": 4
        }
      ]
    }
  ],
  "nodes": [
    {
      "children": [
        1
      ],
      "matrix": [
        1811.75,
        0.0,
        0.0,
        0.0,
        0.0,
        4.0228931297292547e-13,
        -1811.75,
        0.0,
        0.0,
        1811.75,
        4.0228931297292547e-13,
        0.0,
        0.0,
        0.0,
        0.0,
        1.0
      ],
      "name": "Sketchfab_model"
    },
    {
      "children": [
        2
      ],
      "name": "Root"
    },
    {
      "children": [
        3
      ],
      "matrix": [
        1.00026,
        0.0,
        0.0,
        0.0,
        0.0,
        0.80737,
        0.0,
        0.0,
        0.0,
        0.0,
        0.8893200000000001,
        0.0,
        0.0,
        0.0,
        0.0,
        1.0
      ],
      "name": "m-dorito"
    },
    {
      "mesh": 0,
      "name": "m-dorito_0"
    }
  ],
  "scene": 0,
  "scenes": [
    {
      "name": "Sketchfab_Scene",
      "nodes": [
        0
      ]
    }
  ]
}
