{
  "accessors": [
    {
      "bufferView": 2,
      "componentType": 5126,
      "count": 230,
      "max": [
        0.4047900140285492,
        0.08202999830245972,
        0.20750999450683594
      ],
      "min": [
        -0.39559000730514526,
        -0.08202999830245972,
        9.999999747378752e-06
      ],
      "type": "VEC3"
    },
    {
      "bufferView": 2,
      "byteOffset": 2760,
      "componentType": 5126,
      "count": 230,
      "max": [
        1.0,
        1.0,
        1.0
      ],
      "min": [
        -1.0,
        -1.0,
        -1.0
      ],
      "type": "VEC3"
    },
    {
      "bufferView": 1,
      "componentType": 5126,
      "count": 230,
      "max": [
        0.9784500002861023,
        0.9599300026893616
      ],
      "min": [
        0.02597000077366829,
        0.19952000677585602
      ],
      "type": "VEC2"
    },
    {
      "bufferView": 0,
      "componentType": 5125,
      "count": 960,
      "type": "SCALAR"
    }
  ],
  "asset": {
    "extras": {
      "author": "nulpointr (https://sketchfab.com/nulpointr)",
      "license": "CC-BY-4.0 (http://creativecommons.org/licenses/by/4.0/)",
      "source": "https://sketchfab.com/3d-models/paintball-snake-beam-bunker-0cc7eae87a48411c8bec066d35ebaecc",
      "title": "Paintball \"Snake Beam\" Bunker"
    },
    "generator": "Sketchfab-12.67.0",
    "version": "2.0"
  },
  "bufferViews": [
    {
      "buffer": 0,
      "byteLength": 3840,
      "name": "floatBufferViews",
      "target": 34963
    },
    {
      "buffer": 0,
      "byteLength": 1840,
      "byteOffset": 3840,
      "byteStride": 8,
      "name": "floatBufferViews",
      "target": 34962
    },
    {
      "buffer": 0,
      "byteLength": 5520,
      "byteOffset": 5680,
      "byteStride": 12,
      "name": "floatBufferViews",
      "target": 34962
    }
  ],
  "buffers": [
    {
      "byteLength": 11200,
      "uri": "scene.bin"
    }
  ],
  "materials": [
    {
      "doubleSided": true,
      "name": "Scene_-_Root",
      "pbrMetallicRoughness": {
        "metallicFactor": 0.4346417682926829,
        "roughnessFactor": 0.2543826219512195
      }
    }
  ],
  "meshes": [
    {
      "name": "snake-beam.001_0",
      "primitives": [
        {
          "attributes": {
            "NORMAL": 1,
            "POSITION": 0,
            "TEXCOORD_0": 2
          },
          "indices": 3,
          "material": 0,
          "mode": 4
        }
      ]
    }
  ],
  "nodes": [
    {
      "children": [
        1
      ],
      "matrix": [
        2372.596435546875,
        0.0,
        0.0,
        0.0,
        0.0,
        5.268222381775434e-13,
        -2372.596435546875,
        0.0,
        0.0,
        2372.596435546875,
        5.268222381775434e-13,
        0.0,
        0.0,
        0.0,
        0.0,
        1.0
      ],
      "name": "Sketchfab_model"
    },
    {
      "children": [
        2
      ],
      "name": "Root"
    },
    {
      "children": [
        3
      ],
      "matrix": [
        -0.0,
        1.0,
        0.0,
        0.0,
        -1.0,
        -0.0,
        0.0,
        0.0,
        0.0,
        0.0,
        1.0,
        0.0,
        0.0,
        0.0,
        0.0,
        1.0
      ],
      "name": "snake-beam.001"
    },
    {
      "mesh": 0,
      "name": "snake-beam.001_0"
    }
  ],
  "scene": 0,
  "scenes": [
    {
      "name": "Sketchfab_Scene",
      "nodes": [
        0
      ]
    }
  ]
}
