{
  "accessors": [
    {
      "bufferView": 2,
      "componentType": 5126,
      "count": 159,
      "max": [
        0.3895699977874756,
        0.09600000083446503,
        0.3576599955558777
      ],
      "min": [
        -0.3894299864768982,
        -0.09591999650001526,
        -0.00044999999227002263
      ],
      "type": "VEC3"
    },
    {
      "bufferView": 2,
      "byteOffset": 1908,
      "componentType": 5126,
      "count": 159,
      "max": [
        0.7961000204086304,
        0.9994603991508484,
        0.886218786239624
      ],
      "min": [
        -0.7995893955230713,
        -0.9993870854377747,
        -0.8488482236862183
      ],
      "type": "VEC3"
    },
    {
      "bufferView": 1,
      "componentType": 5126,
      "count": 159,
      "max": [
        1.0,
        1.0
      ],
      "min": [
        0.0,
        0.0
      ],
      "type": "VEC2"
    },
    {
      "bufferView": 0,
      "componentType": 5125,
      "count": 540,
      "type": "SCALAR"
    }
  ],
  "asset": {
    "extras": {
      "author": "nulpointr (https://sketchfab.com/nulpointr)",
      "license": "CC-BY-4.0 (http://creativecommons.org/licenses/by/4.0/)",
      "source": "https://sketchfab.com/3d-models/wpbo-paintball-mini-wall-bunker-53271571e9b2462d8836d801a35aa5a8",
      "title": "WPBO Paintball \"Mini Wall\" Bunker"
    },
    "generator": "Sketchfab-12.67.0",
    "version": "2.0"
  },
  "bufferViews": [
    {
      "buffer": 0,
      "byteLength": 2160,
      "name": "floatBufferViews",
      "target": 34963
    },
    {
      "buffer": 0,
      "byteLength": 1272,
      "byteOffset": 2160,
      "byteStride": 8,
      "name": "floatBufferViews",
      "target": 34962
    },
    {
      "buffer": 0,
      "byteLength": 3816,
      "byteOffset": 3432,
      "byteStride": 12,
      "name": "floatBufferViews",
      "target": 34962
    }
  ],
  "buffers": [
    {
      "byteLength": 7248,
      "uri": "scene.bin"
    }
  ],
  "materials": [
    {
      "doubleSided": true,
      "name": "Scene_-_Root",
      "pbrMetallicRoughness": {
        "metallicFactor": 0.33708079268292684,
        "roughnessFactor": 0.1934070121951219
      }
    }
  ],
  "meshes": [
    {
      "name": "m-wall.001_0",
      "primitives": [
        {
          "attributes": {
            "NORMAL": 1,
            "POSITION": 0,
            "TEXCOORD_0": 2
          },
          "indices": 3,
          "material": 0,
          "mode": 4
        }
      ]
    }
  ],
  "nodes": [
    {
      "children": [
        1
      ],
      "matrix": [
        2276.37890625,
        0.0,
        0.0,
        0.0,
        0.0,
        5.054576548979561e-13,
        -2276.37890625,
        0.0,
        0.0,
        2276.37890625,
        5.054576548979561e-13,
        0.0,
        0.0,
        0.0,
        0.0,
        1.0
      ],
      "name": "Sketchfab_model"
    },
    {
      "children": [
        2
      ],
      "name": "Root"
    },
    {
      "children": [
        3
      ],
      "matrix": [
        -0.0,
        1.0,
        0.0,
        0.0,
        -1.0,
        -0.0,
        0.0,
        0.0,
        0.0,
        0.0,
        1.0,
        0.0,
        0.0,
        0.0,
        0.0,
        1.0
      ],
      "name": "m-wall.001"
    },
    {
      "mesh": 0,
      "name": "m-wall.001_0"
    }
  ],
  "scene": 0,
  "scenes": [
    {
      "name": "Sketchfab_Scene",
      "nodes": [
        0
      ]
    }
  ]
}
